# xmcd
#
# Track frame offsets:
#	150
#	9040
#	27016
#	37624
#	52483
#	65481
#	78973
#	90833
#	110188
#	124197
#	159288
#	176407
#	188293
#
# Disc length: 2676 seconds
#
# Revision: 1
# Processed by: cddbd v1.4PL0 Copyright (c) Steve Scherf et al.
# Submitted via: audiograbber 1.80.04
#
DISCID=8c0a720d
DTITLE=Kim Simmonds - Blues Like Midnight
DYEAR=2001
DGENRE=Blues
TTITLE0=Cry Before She Goes
TTITLE1=Morning Light
TTITLE2=Tell The World
TTITLE3=Move To A Country Town
TTITLE4=Hold on Baby
TTITLE5=My Woman Blues
TTITLE6=Rag Ah
TTITLE7=Sometimes You Gamble
TTITLE8=Long Ways From Heaven
TTITLE9=Blues Like Midnight
TTITLE10=Baby Says She's Leaving
TTITLE11=Crying The Blues All Night
TTITLE12=Blues For Lonesome
EXTD=
EXTT0=
EXTT1=
EXTT2=
EXTT3=
EXTT4=
EXTT5=
EXTT6=
EXTT7=
EXTT8=
EXTT9=
EXTT10=
EXTT11=
EXTT12=
PLAYORDER=
